<?xml version="1.0" encoding="UTF-8" standalone="no"?>
<svg
   xmlns:dc="http://purl.org/dc/elements/1.1/"
   xmlns:cc="http://creativecommons.org/ns#"
   xmlns:rdf="http://www.w3.org/1999/02/22-rdf-syntax-ns#"
   xmlns:svg="http://www.w3.org/2000/svg"
   xmlns="http://www.w3.org/2000/svg"
   viewBox="0 0 513.33331 250.66667"
   height="250.66667"
   width="513.33331"
   xml:space="preserve"
   id="svg2"
   version="1.1"><metadata
     id="metadata8"><rdf:RDF><cc:Work
         rdf:about=""><dc:format>image/svg+xml</dc:format><dc:type
           rdf:resource="http://purl.org/dc/dcmitype/StillImage" /></cc:Work></rdf:RDF></metadata><defs
     id="defs6" /><g
     transform="matrix(1.3333333,0,0,-1.3333333,0,250.66667)"
     id="g10"><g
       transform="scale(0.1)"
       id="g12"><path
         id="path14"
         style="fill:#bd5c8f;fill-opacity:1;fill-rule:evenodd;stroke:none"
         d="m 787.5,1610 c 0.352,-0.66 0.66,-1.17 1.02,-1.48 9.332,-20.67 4.839,-37.35 -13.52,-50 -20.309,-9.69 -36.988,-5.36 -50,12.96 -0.98,1.68 -1.641,3.36 -1.988,5 -140,-85.31 -241.992,-185.46 -305.981,-300.46 0.668,-0.36 1.489,-0.67 2.5,-1.02 18.321,-13.01 22.809,-29.65 13.481,-50 -13.012,-18.32 -29.653,-22.85 -50,-13.52 -0.313,0.36 -0.672,0.51 -0.981,0.51 C 340.352,1124.65 312.191,1044.18 297.5,970.512 282.852,896.48 275.199,840.82 274.531,803.52 c 1.641,-0.36 3.321,-0.508 5,-0.508 48.321,234.648 135.16,416.168 260.469,544.488 125,128.01 251.68,218.01 380,270 128.67,52.34 222.5,82.15 281.52,89.49 0,1.02 0,2.19 0,3.52 -165,-13.36 -303,-46.84 -414.02,-100.51" /><path
         id="path16"
         style="fill:#59ba4c;fill-opacity:1;fill-rule:evenodd;stroke:none"
         d="m 1048.01,766.988 v 90 l -659.998,-90 h 659.998" /><path
         id="path18"
         style="fill:#59ba4c;fill-opacity:1;fill-rule:evenodd;stroke:none"
         d="m 1238.01,1006.99 v 610 l -90,-610 h 90" /><path
         id="path20"
         style="fill:#022845;fill-opacity:1;fill-rule:evenodd;stroke:none"
         d="m 1238.01,1749.49 c -22.35,-1.99 -34.49,-14.14 -36.49,-36.48 0,-1.02 0,-1.84 0,-2.5 0.32,-1.02 0.51,-2.19 0.51,-3.52 4.34,-18.98 16.33,-29.33 35.98,-30.97 22.34,2.3 34.69,14.64 36.99,36.99 -2.3,22.34 -14.65,34.49 -36.99,36.48" /><path
         id="path22"
         style="fill:#022845;fill-opacity:1;fill-rule:evenodd;stroke:none"
         d="m 775.512,1558.52 c 18.359,12.96 22.847,29.64 13.508,50 -0.348,0.66 -0.661,1.13 -1.008,1.48 -13.321,17.34 -29.852,21.33 -49.492,11.99 -16.329,-11.33 -21.489,-26.48 -15.508,-45.51 0.66,-1.32 1.519,-2.81 2.5,-4.49 12.648,-18.32 29.328,-22.81 50,-13.47" /><path
         id="path24"
         style="fill:#022845;fill-opacity:1;fill-rule:evenodd;stroke:none"
         d="m 433.52,1225 c 9.332,20.66 4.839,37.34 -13.52,50 -0.98,0.66 -1.988,1.17 -2.969,1.48 -19.332,7.35 -35,2.5 -47.031,-14.49 -9.34,-20 -5.309,-36.48 12.031,-49.49 0.668,-0.35 1.129,-0.66 1.489,-1.02 20.351,-9.33 36.992,-4.8 50,13.52" /><path
         id="path26"
         style="fill:#264a91;fill-opacity:1;fill-rule:evenodd;stroke:none"
         d="m 1176.52,1878.98 c -16.68,0.67 -33.36,1.02 -50,1.02 -208.36,-2.34 -396.68,-52.85 -565,-151.48 C 393.16,1629.49 258.672,1496.33 158.012,1328.98 57.3398,1161.68 4.69141,974.18 0,766.48 h 100 c 4.34,202.04 54.34,385 150,549.03 95.66,163.98 223.871,296.17 384.531,396.48 160.981,100.35 341.641,156.02 541.989,166.99" /><path
         id="path28"
         style="fill:#022845;fill-opacity:1;fill-rule:evenodd;stroke:none"
         d="m 273.52,803.52 c -22.348,-2.04 -34.5,-14.18 -36.489,-36.532 1.989,-22.34 14.141,-34.648 36.489,-36.988 22.339,2.34 34.64,14.648 36.992,36.988 -1.641,19.692 -11.992,31.684 -30.981,36.024 -1.679,0.308 -3.359,0.508 -5,0.508 -0.351,0 -0.66,0 -1.011,0" /><path
         id="path30"
         style="fill:#284c92;fill-opacity:1;fill-rule:nonzero;stroke:none"
         d="m 1336.48,517.969 c 48.6,0 90,18.59 121.57,55 l -47.03,56.09 C 1393.52,610 1369.45,595 1340.08,595 c -52.5,0 -86.56,42.969 -86.56,117.031 0,72.5 39.53,115.469 87.5,115.469 26.56,0 45.93,-12.031 64.53,-29.059 l 47.03,57.028 c -25.63,26.09 -64.53,48.59 -113.13,48.59 -94.37,0 -177.5,-71.09 -177.5,-195 0,-126.09 80,-191.09 174.53,-191.09 z m 250.55,0 c 19.53,0 34.53,3.59 43.91,7.5 l -10.47,65.472 c -5,-0.941 -7.03,-0.941 -10,-0.941 -7.03,0 -15.94,5.469 -15.94,24.059 v 310.472 h -88.59 V 617.5 c 0,-59.531 20,-99.531 81.09,-99.531 z" /><path
         id="path32"
         style="fill:#284c92;fill-opacity:1;fill-rule:nonzero;stroke:none"
         d="m 1795.55,517.969 c 72.03,0 138.9,55 138.9,149.062 0,94.528 -66.87,149.528 -138.9,149.528 -72.5,0 -139.53,-55 -139.53,-149.528 0,-94.062 67.03,-149.062 139.53,-149.062 z m 0,72.031 c -33.6,0 -48.6,30 -48.6,77.031 0,47.5 15,77.5 48.6,77.5 32.97,0 47.97,-30 47.97,-77.5 0,-47.031 -15,-77.031 -47.97,-77.031 z" /><path
         id="path34"
         style="fill:#284c92;fill-opacity:1;fill-rule:nonzero;stroke:none"
         d="m 2115.94,517.969 c 30,0 65.94,9.062 93.44,33.59 L 2175.31,610 c -14.37,-11.559 -31.4,-20 -49.37,-20 -35,0 -60.63,30 -60.63,77.031 0,47.5 24.53,77.5 63.6,77.5 12.5,0 23.43,-4.531 36.4,-15.472 l 41.57,56.882 c -21.57,18.59 -48.44,30.618 -82.97,30.618 -79.53,0 -149.53,-55 -149.53,-149.528 0,-94.062 61.56,-149.062 141.56,-149.062 z" /><path
         id="path36"
         style="fill:#284c92;fill-opacity:1;fill-rule:nonzero;stroke:none"
         d="m 2258.87,525 h 86.56 v 69.531 l 34.06,38.438 L 2440.9,525 h 96.56 l -107.5,167.031 100.47,117.5 h -96.56 l -86.41,-107.972 h -2.03 v 222.972 h -86.56 z" /><path
         id="path38"
         style="fill:#284c92;fill-opacity:1;fill-rule:nonzero;stroke:none"
         d="m 2624.38,525 h 101.4 l 22.97,108.441 c 5,26.559 9.06,52.5 13.59,83.59 h 2.5 c 5,-31.09 9.54,-57.031 15,-83.59 L 2803.75,525 h 104.06 l 67.03,284.531 h -82.5 l -24.53,-127.5 c -5.47,-27.972 -7.97,-56.562 -12.5,-85 h -2.5 c -5.93,28.438 -10.93,57.028 -17.5,85 l -30.47,127.5 h -77.03 l -29.06,-127.5 c -6.87,-27.5 -11.41,-56.562 -16.41,-85 h -2.5 c -4.53,28.438 -7.5,57.028 -12.03,85 l -25.47,127.5 h -87.96 z" /><path
         id="path40"
         style="fill:#284c92;fill-opacity:1;fill-rule:nonzero;stroke:none"
         d="m 3142.23,517.969 c 72.03,0 138.9,55 138.9,149.062 0,94.528 -66.87,149.528 -138.9,149.528 -72.5,0 -139.53,-55 -139.53,-149.528 0,-94.062 67.03,-149.062 139.53,-149.062 z m 0,72.031 c -33.6,0 -48.6,30 -48.6,77.031 0,47.5 15,77.5 48.6,77.5 32.97,0 47.97,-30 47.97,-77.5 C 3190.2,620 3175.2,590 3142.23,590 Z" /><path
         id="path42"
         style="fill:#284c92;fill-opacity:1;fill-rule:nonzero;stroke:none"
         d="m 3336.99,525 h 88.6 v 162.5 c 15,37.5 40.46,50.941 61.4,50.941 12.5,0 21.1,-1.882 31.1,-4.382 l 15,76.41 c -7.97,3.59 -17.5,6.09 -34.54,6.09 -28.43,0 -60,-18.59 -80.93,-56.559 h -2.03 l -6.1,49.531 h -72.5 z" /><path
         id="path44"
         style="fill:#284c92;fill-opacity:1;fill-rule:nonzero;stroke:none"
         d="m 3569.41,525 h 86.57 v 69.531 l 34.06,38.438 L 3751.45,525 h 96.56 l -107.5,167.031 100.47,117.5 h -96.57 l -86.4,-107.972 h -2.03 v 222.972 h -86.57 z" /><path
         id="path46"
         style="fill:#284c92;fill-opacity:1;fill-rule:nonzero;stroke:none"
         d="m 2010.39,90.4688 c 33.28,0 59.53,13.2812 80.16,37.0312 l -21.72,25.621 c -15.31,-16.871 -33.6,-27.34 -57.03,-27.34 -45.47,0 -74.22,37.5 -74.22,98.75 0,60.469 30.78,97.66 75.31,97.66 20.94,0 37.03,-9.531 50.31,-23.132 L 2085.39,325 c -15.78,17.031 -41.09,32.5 -73.28,32.5 -65,0 -116.09,-50.469 -116.09,-134.379 0,-84.371 49.68,-132.6522 114.37,-132.6522 z m 199.38,0 c 47.5,0 90.62,36.7222 90.62,100.4722 0,64.368 -43.12,101.399 -90.62,101.399 -47.66,0 -90.63,-37.031 -90.63,-101.399 0,-63.75 42.97,-100.4722 90.63,-100.4722 z m 0,32.8122 c -30.16,0 -49.07,27.028 -49.07,67.66 0,40.938 18.91,68.278 49.07,68.278 30.46,0 49.37,-27.34 49.37,-68.278 0,-40.632 -18.91,-67.66 -49.37,-67.66 z" /><path
         id="path48"
         style="fill:#284c92;fill-opacity:1;fill-rule:nonzero;stroke:none"
         d="m 2403.79,90.4688 c 26.56,0 45.47,13.2812 62.97,33.5902 h 0.94 L 2470.98,95 h 32.81 v 192.5 h -40.16 V 153.75 c -16.09,-20.309 -28.43,-28.59 -46.25,-28.59 -22.81,0 -32.18,12.961 -32.18,46.09 V 287.5 h -40.32 V 166.41 c 0,-49.07 17.82,-75.9412 58.91,-75.9412 z" /><path
         id="path50"
         style="fill:#284c92;fill-opacity:1;fill-rule:nonzero;stroke:none"
         d="m 2564.1,95 h 39.85 v 136.559 c 17.18,17.031 29.37,26.25 47.34,26.25 22.66,0 32.5,-13.43 32.5,-46.559 V 95 h 40.31 v 121.09 c 0,49.07 -18.28,76.25 -59.22,76.25 -26.25,0 -45.78,-14.219 -63.75,-31.399 h -0.93 l -3.29,26.559 h -32.81 z" /><path
         id="path52"
         style="fill:#284c92;fill-opacity:1;fill-rule:nonzero;stroke:none"
         d="m 2834.34,90.4688 c 47.5,0 73.12,26.2502 73.12,58.4412 0,36.399 -29.84,48.281 -56.72,58.43 -20.94,7.66 -40.94,14.07 -40.94,30.469 0,13.281 9.85,23.75 30.79,23.75 16.09,0 29.68,-7.028 42.96,-16.719 l 18.91,24.851 c -15.62,12.188 -36.72,22.649 -62.66,22.649 -42.34,0 -68.12,-24.059 -68.12,-56.25 0,-32.649 29.37,-46.25 54.84,-56.09 21.1,-7.969 42.82,-15.621 42.82,-33.121 0,-14.848 -10.94,-25.938 -34.07,-25.938 -20.62,0 -37.34,8.438 -54.53,22.028 l -18.9,-25.938 c 18.59,-15.312 45.78,-26.5622 72.5,-26.5622 z" /><path
         id="path54"
         style="fill:#284c92;fill-opacity:1;fill-rule:nonzero;stroke:none"
         d="m 3030.47,90.4688 c 25.15,0 47.19,8.4414 65,20.3122 l -13.91,25.469 c -14.06,-9.059 -28.75,-14.371 -45.94,-14.371 -33.12,0 -56.24,22.18 -59.37,58.902 h 124.84 c 1.1,4.528 1.88,12.5 1.88,20.309 0,54.531 -27.35,91.25 -78.44,91.25 -45.15,0 -87.81,-38.75 -87.81,-101.399 0,-63.441 41.56,-100.4722 93.75,-100.4722 z m -54.69,117.9722 c 3.91,33.899 25.31,52.5 49.38,52.5 27.96,0 43.12,-19.222 43.12,-52.5 z" /><path
         id="path56"
         style="fill:#284c92;fill-opacity:1;fill-rule:nonzero;stroke:none"
         d="m 3187.73,90.4688 c 9.85,0 16.88,1.4101 21.72,3.121 l -5.15,30.4692 c -3.6,-0.778 -5,-0.778 -6.72,-0.778 -4.85,0 -9.85,3.91 -9.85,14.84 V 373.91 h -39.84 V 140.16 c 0,-31.101 10.78,-49.6912 39.84,-49.6912 z" /><path
         id="path58"
         style="fill:#284c92;fill-opacity:1;fill-rule:nonzero;stroke:none"
         d="m 3292.3,90.4688 c 9.85,0 16.88,1.4101 21.72,3.121 l -5.15,30.4692 c -3.6,-0.778 -5,-0.778 -6.72,-0.778 -4.85,0 -9.85,3.91 -9.85,14.84 V 373.91 h -39.84 V 140.16 c 0,-31.101 10.78,-49.6912 39.84,-49.6912 z" /><path
         id="path60"
         style="fill:#284c92;fill-opacity:1;fill-rule:nonzero;stroke:none"
         d="m 3357.07,95 h 39.8398 V 287.5 H 3357.07 Z m 20,228.59 c 14.69,0 25.78,9.691 25.78,23.75 0,14.379 -11.09,23.75 -25.78,23.75 -14.84,0 -25.62,-9.371 -25.62,-23.75 0,-14.059 10.78,-23.75 25.62,-23.75 z" /><path
         id="path62"
         style="fill:#284c92;fill-opacity:1;fill-rule:nonzero;stroke:none"
         d="m 3457.54,95 h 39.84 v 136.559 c 17.19,17.031 29.38,26.25 47.35,26.25 22.65,0 32.5,-13.43 32.5,-46.559 V 95 h 40.31 v 121.09 c 0,49.07 -18.28,76.25 -59.22,76.25 -26.25,0 -45.78,-14.219 -63.75,-31.399 h -0.94 l -3.28,26.559 h -32.81 z" /><path
         id="path64"
         style="fill:#284c92;fill-opacity:1;fill-rule:nonzero;stroke:none"
         d="m 3741.41,8.58984 c 61.56,0 100.78,29.99996 100.78,67.19146 0,32.8087 -23.75,46.8787 -69.22,46.8787 h -35.47 c -24.38,0 -32.19,7.34 -32.19,18.899 0,9.062 4.22,14.691 10.47,20.32 8.44,-3.91 18.28,-5.938 27.03,-5.938 40.31,0 72.03,24.059 72.03,66.09 0,14.688 -5.15,27.66 -12.5,35.309 h 36.72 v 30.16 h -68.28 c -7.34,2.809 -17.19,4.84 -27.97,4.84 -39.84,0 -74.53,-25.461 -74.53,-69.219 0,-22.812 12.19,-40.93 25.16,-51.09 v -1.41 c -10.47,-7.652 -21.41,-20.621 -21.41,-35.781 0,-15.621 7.81,-25.781 17.5,-31.719 v -1.871 c -17.81,-10.7812 -27.97,-25.7812 -27.97,-41.8711 0,-33.7578 33.6,-50.78906 79.85,-50.78906 z m 1.4,173.28916 c -20,0 -36.4,15.621 -36.4,41.242 0,26.258 16.09,40.938 36.4,40.938 20.31,0 36.41,-15 36.41,-40.938 0,-25.621 -16.41,-41.242 -36.41,-41.242 z m 4.53,-146.7188 c -31.87,0 -51.4,11.25 -51.4,30.1484 0,9.6914 4.84,19.5312 16.4,27.9727 8.13,-1.7227 16.88,-2.8125 25.94,-2.8125 h 29.06 c 23.44,0 35.94,-4.8477 35.94,-21.0899 0,-17.8203 -22.34,-34.2187 -55.94,-34.2187 z" /></g></g></svg>